{
    "asset" : {
        "generator" : "Khronos glTF Blender I/O v1.2.20",
        "version" : "2.0"
    },
    "scene" : 0,
    "scenes" : [
        {
            "name" : "Scene",
            "nodes" : [
                0
            ]
        }
    ],
    "nodes" : [
        {
            "mesh" : 0,
            "name" : "Circle.001"
        }
    ],
    "materials" : [
        {
            "pbrMetallicRoughness" : {},
            "name" : "white"
        }
    ],
    "meshes" : [
        {
            "primitives" : [
                {
                    "material" : 0,
                    "attributes" : {
                        "POSITION" : 0,
                        "NORMAL" : 1,
                        "TEXCOORD_0" : 2
                    },
                    "indices" : 3
                }
            ],
            "name" : "Circle.001"
        }
    ],
    "accessors" : [
        {
            "type" : "VEC3",
            "componentType" : 5126,
            "max" : [
                23.527427673339844,
                24.390094757080078,
                18.336223602294922
            ],
            "bufferView" : 0,
            "min" : [
                -23.678768157958984,
                -31.136674880981445,
                -0.023709923028945923
            ],
            "count" : 11453
        },
        {
            "componentType" : 5126,
            "type" : "VEC3",
            "bufferView" : 1,
            "count" : 11453
        },
        {
            "componentType" : 5126,
            "type" : "VEC2",
            "bufferView" : 2,
            "count" : 11453
        },
        {
            "componentType" : 5123,
            "type" : "SCALAR",
            "bufferView" : 3,
            "count" : 67284
        }
    ],
    "bufferViews" : [
        {
            "buffer" : 0,
            "byteLength" : 137436,
            "byteOffset" : 0
        },
        {
            "buffer" : 0,
            "byteLength" : 137436,
            "byteOffset" : 137436
        },
        {
            "buffer" : 0,
            "byteLength" : 91624,
            "byteOffset" : 274872
        },
        {
            "buffer" : 0,
            "byteLength" : 134568,
            "byteOffset" : 366496
        }
    ],
    "buffers" : [
        {
            "byteLength" : 501064,
            "uri" : "data:application/octet-stream;base64,"
        }
    ]
}
