{
    "asset" : {
        "generator" : "Khronos glTF Blender I/O v1.2.20",
        "version" : "2.0"
    },
    "scene" : 0,
    "scenes" : [
        {
            "nodes" : [
                0
            ],
            "name" : "Scene"
        }
    ],
    "nodes" : [
        {
            "translation" : [
                0,
                0,
                10
            ],
            "scale" : [
                9.999995231628418,
                9.999995231628418,
                10
            ],
            "mesh" : 0,
            "name" : "Cube"
        }
    ],
    "animations" : [
        {
            "channels" : [
                {
                    "target" : {
                        "path" : "translation",
                        "node" : 0
                    },
                    "sampler" : 0
                },
                {
                    "target" : {
                        "path" : "rotation",
                        "node" : 0
                    },
                    "sampler" : 1
                }
            ],
            "name" : "CubeAction.001",
            "samplers" : [
                {
                    "interpolation" : "LINEAR",
                    "input" : 4,
                    "output" : 5
                },
                {
                    "interpolation" : "LINEAR",
                    "input" : 4,
                    "output" : 6
                }
            ]
        }
    ],
    "materials" : [
        {
            "pbrMetallicRoughness" : {
                "baseColorTexture" : {
                    "texCoord" : 0,
                    "index" : 0
                }
            },
            "name" : "Material"
        }
    ],
    "meshes" : [
        {
            "name" : "Cube",
            "primitives" : [
                {
                    "attributes" : {
                        "POSITION" : 0,
                        "NORMAL" : 1,
                        "TEXCOORD_0" : 2
                    },
                    "indices" : 3,
                    "material" : 0
                }
            ]
        }
    ],
    "textures" : [
        {
            "source" : 0,
            "sampler" : 0
        }
    ],
    "images" : [
        {
            "bufferView" : 4,
            "mimeType" : "image/png",
            "name" : "Material Diffuse Color"
        }
    ],
    "accessors" : [
        {
            "bufferView" : 0,
            "max" : [
                1.0000003576278687,
                1.0000003576278687,
                1
            ],
            "componentType" : 5126,
            "type" : "VEC3",
            "min" : [
                -1.0000003576278687,
                -1.0000005960464478,
                -1
            ],
            "count" : 486
        },
        {
            "count" : 486,
            "bufferView" : 1,
            "type" : "VEC3",
            "componentType" : 5126
        },
        {
            "count" : 486,
            "bufferView" : 2,
            "type" : "VEC2",
            "componentType" : 5126
        },
        {
            "count" : 2304,
            "bufferView" : 3,
            "type" : "SCALAR",
            "componentType" : 5123
        },
        {
            "bufferView" : 5,
            "max" : [
                4
            ],
            "componentType" : 5126,
            "type" : "SCALAR",
            "min" : [
                0.041666666666666664
            ],
            "count" : 96
        },
        {
            "count" : 96,
            "bufferView" : 6,
            "type" : "VEC3",
            "componentType" : 5126
        },
        {
            "count" : 96,
            "bufferView" : 7,
            "type" : "VEC4",
            "componentType" : 5126
        }
    ],
    "bufferViews" : [
        {
            "byteOffset" : 0,
            "buffer" : 0,
            "byteLength" : 5832
        },
        {
            "byteOffset" : 5832,
            "buffer" : 0,
            "byteLength" : 5832
        },
        {
            "byteOffset" : 11664,
            "buffer" : 0,
            "byteLength" : 3888
        },
        {
            "byteOffset" : 15552,
            "buffer" : 0,
            "byteLength" : 4608
        },
        {
            "byteOffset" : 20160,
            "buffer" : 0,
            "byteLength" : 102508
        },
        {
            "byteOffset" : 122668,
            "buffer" : 0,
            "byteLength" : 384
        },
        {
            "byteOffset" : 123052,
            "buffer" : 0,
            "byteLength" : 1152
        },
        {
            "byteOffset" : 124204,
            "buffer" : 0,
            "byteLength" : 1536
        }
    ],
    "samplers" : [
        {
            "minFilter" : 9986,
            "magFilter" : 9729,
            "wrapT" : 10497,
            "wrapS" : 10497
        }
    ],
    "buffers" : [
        {
            "uri" : "data:application/octet-stream;base64,",
            "byteLength" : 125740
        }
    ]
}
