{
    "asset" : {
        "version" : "2.0",
        "generator" : "Khronos glTF Blender I/O v1.2.20"
    },
    "scene" : 0,
    "scenes" : [
        {
            "name" : "Scene",
            "nodes" : [
                0,
                1,
                2,
                3
            ]
        }
    ],
    "nodes" : [
        {
            "name" : "Point",
            "translation" : [
                -13.301239013671875,
                0,
                19.52997589111328
            ]
        },
        {
            "name" : "Cube",
            "mesh" : 0,
            "scale" : [
                9.999995231628418,
                9.999995231628418,
                10
            ]
        },
        {
            "rotation" : [
                0.16907575726509094,
                0.27217137813568115,
                0.7558803558349609,
                0.570947527885437
            ],
            "name" : "Lamp",
            "translation" : [
                4.076245307922363,
                1.0054539442062378,
                5.903861999511719
            ]
        },
        {
            "rotation" : [
                0.483536034822464,
                0.20870360732078552,
                0.33687159419059753,
                0.7804827094078064
            ],
            "name" : "Camera",
            "translation" : [
                7.481131553649902,
                -6.5076398849487305,
                5.34366512298584
            ],
            "camera" : 0
        }
    ],
    "cameras" : [
        {
            "type" : "perspective",
            "name" : "Camera",
            "perspective" : {
                "zfar" : 100,
                "znear" : 0.10000000149011612,
                "yfov" : 0.5033799372418416
            }
        }
    ],
    "materials" : [
        {
            "name" : "Material",
            "pbrMetallicRoughness" : {
                "baseColorTexture" : {
                    "index" : 0,
                    "texCoord" : 0
                }
            }
        }
    ],
    "meshes" : [
        {
            "primitives" : [
                {
                    "indices" : 3,
                    "material" : 0,
                    "attributes" : {
                        "NORMAL" : 0,
                        "POSITION" : 1,
                        "TEXCOORD_0" : 2
                    }
                }
            ],
            "name" : "Cube"
        }
    ],
    "textures" : [
        {
            "source" : 0,
            "sampler" : 0
        }
    ],
    "images" : [
        {
            "mimeType" : "image/png",
            "name" : "Material Diffuse Color",
            "bufferView" : 4
        }
    ],
    "accessors" : [
        {
            "bufferView" : 0,
            "type" : "VEC3",
            "componentType" : 5126,
            "count" : 486
        },
        {
            "type" : "VEC3",
            "bufferView" : 1,
            "count" : 486,
            "max" : [
                1.0000003576278687,
                1.0000003576278687,
                1
            ],
            "componentType" : 5126,
            "min" : [
                -1.0000003576278687,
                -1.0000005960464478,
                -1
            ]
        },
        {
            "bufferView" : 2,
            "type" : "VEC2",
            "componentType" : 5126,
            "count" : 486
        },
        {
            "bufferView" : 3,
            "type" : "SCALAR",
            "componentType" : 5123,
            "count" : 2304
        }
    ],
    "bufferViews" : [
        {
            "buffer" : 0,
            "byteLength" : 5832,
            "byteOffset" : 0
        },
        {
            "buffer" : 0,
            "byteLength" : 5832,
            "byteOffset" : 5832
        },
        {
            "buffer" : 0,
            "byteLength" : 3888,
            "byteOffset" : 11664
        },
        {
            "buffer" : 0,
            "byteLength" : 4608,
            "byteOffset" : 15552
        },
        {
            "buffer" : 0,
            "byteLength" : 103293,
            "byteOffset" : 20160
        }
    ],
    "samplers" : [
        {
            "wrapT" : 10497,
            "minFilter" : 9986,
            "wrapS" : 10497,
            "magFilter" : 9729
        }
    ],
    "buffers" : [
        {
            "byteLength" : 123456,
            "uri" : "data:application/octet-stream;base64,"
        }
    ]
}
